<?xml version="1.0" standalone="no"?>
<!DOCTYPE svg PUBLIC "-//W3C//DTD SVG 20010904//EN"
 "http://www.w3.org/TR/2001/REC-SVG-20010904/DTD/svg10.dtd">
<svg version="1.0" xmlns="http://www.w3.org/2000/svg"
 width="300.000000pt" height="300.000000pt" viewBox="0 0 300.000000 300.000000"
 preserveAspectRatio="xMidYMid meet">
<metadata>
Created by potrace 1.10, written by Peter Selinger 2001-2011
</metadata>
<g transform="translate(0.000000,300.000000) scale(0.100000,-0.100000)"
fill="#b202e3" stroke="none">
<path d="M1242 2158 c-206 -342 -251 -423 -240 -433 17 -17 488 -295 498 -295
11 0 481 279 499 295 11 11 -27 80 -240 434 -140 232 -256 421 -259 421 -3 0
-119 -190 -258 -422z"/>
<path d="M1032 1573 c248 -336 460 -619 467 -621 7 -2 492 646 500 670 2 6
-11 2 -30 -9 -182 -111 -460 -273 -469 -273 -6 0 -121 65 -255 145 -134 80
-246 145 -250 145 -3 0 13 -26 37 -57z"/>
<path d="M1130 831 l0 -91 -90 0 -90 0 0 -55 0 -55 90 0 90 0 0 -90 0 -90 55
0 55 0 0 90 0 90 90 0 90 0 0 55 0 55 -90 0 -89 0 -3 88 -3 87 -52 3 -53 3 0
-90z"/>
<path d="M1767 913 c-4 -3 -7 -44 -7 -90 l0 -83 -90 0 -90 0 0 -55 0 -55 90 0
90 0 0 -90 0 -90 55 0 55 0 0 90 0 90 90 0 90 0 0 55 0 55 -90 0 -90 0 0 90 0
90 -48 0 c-27 0 -52 -3 -55 -7z"/>
</g>
</svg>

